<svg width="382" height="40" viewBox="0 0 382 40" fill="none" xmlns="http://www.w3.org/2000/svg">
<g clip-path="url(#clip0_2_540)">
<path d="M21.7795 8.01436V17.3743C21.7795 17.3743 16.0913 17.3873 15.0075 17.3743L9.79558 7.90332H1.11831L7.17928 18.4846C2.75436 20.307 0 23.7165 0 28.1515C0 31.9007 0.952636 34.7681 3.78983 36.9824C5.86768 38.6022 8.43566 39.4513 14.5242 39.4513H29.7112V8.01436H21.7795ZM21.7795 33.2136H13.7787C8.5185 33.2136 8.0974 30.5356 8.0974 28.1581C8.0974 25.8328 9.87152 23.4552 14.4966 23.4552H21.7726V33.2136H21.7795Z" fill="white"/>
<path d="M31.2021 39.4709L44.6633 8.19067H51.8426L65.3037 39.4709H56.9854L54.0102 31.9203H42.4888L39.5136 39.4709H31.2021ZM46.8792 20.6596L44.898 25.7544H51.601L49.6198 20.6596L49.1504 19.497C48.8673 18.87 48.5705 18.0209 48.2529 16.9497C48.1908 17.1587 48.0942 17.4461 47.9699 17.8184C47.8457 18.1907 47.7352 18.5107 47.6386 18.7785C47.5419 19.0463 47.4522 19.288 47.3555 19.4905L46.8792 20.6596Z" fill="white"/>
<path d="M66.574 39.4709V8.19067H80.7393C84.1425 8.19067 86.8209 8.86997 88.7883 10.222C90.7557 11.5806 91.7429 13.4617 91.7429 15.8719C91.7429 17.3938 91.3701 18.6479 90.6315 19.6472C89.8928 20.6466 88.8297 21.561 87.4422 22.3971C89.0783 23.0502 90.4313 24.0104 91.5013 25.2775C92.5713 26.5447 93.1097 28.145 93.1097 30.0783C93.1097 32.9653 91.9707 35.258 89.6857 36.9366C87.4008 38.6218 84.5774 39.4644 81.2087 39.4644H66.574V39.4709ZM74.2296 13.821V19.9869H80.6081C81.899 19.9869 82.8999 19.7126 83.6041 19.1574C84.3151 18.6087 84.6671 17.838 84.6671 16.8582C84.6671 15.9046 84.322 15.16 83.6248 14.6244C82.9345 14.0888 81.9266 13.821 80.6012 13.821H74.2296ZM74.2296 25.885V33.4813H80.9809C84.1908 33.4813 85.7993 32.2273 85.7993 29.7256C85.7993 27.1652 84.1908 25.885 80.9809 25.885H74.2296Z" fill="white"/>
<path d="M96.2783 39.4709V8.19067H110.451C113.854 8.19067 116.532 8.86997 118.5 10.222C120.467 11.5806 121.454 13.4617 121.454 15.8719C121.454 17.3938 121.081 18.6479 120.343 19.6472C119.604 20.6466 118.541 21.561 117.153 22.3971C118.79 23.0502 120.143 24.0104 121.213 25.2775C122.283 26.5447 122.821 28.145 122.821 30.0783C122.821 32.9653 121.682 35.258 119.397 36.9366C117.112 38.6218 114.289 39.4644 110.92 39.4644H96.2783V39.4709ZM103.934 13.821V19.9869H110.312C111.603 19.9869 112.604 19.7126 113.308 19.1574C114.019 18.6087 114.372 17.838 114.372 16.8582C114.372 15.9046 114.026 15.16 113.329 14.6244C112.639 14.0888 111.631 13.821 110.306 13.821H103.934ZM103.934 25.885V33.4813H110.685C113.895 33.4813 115.504 32.2273 115.504 29.7256C115.504 27.1652 113.895 25.885 110.685 25.885H103.934Z" fill="white"/>
<path d="M125.92 39.4709V8.19067H133.431V39.4709H125.92Z" fill="white"/>
<path d="M136.186 14.5329V8.19067H163.391V14.5329H153.616V39.4643H145.967V14.5329H136.186Z" fill="white"/>
<path d="M178.716 0H185.15V8.17113H194.02V14.4807H185.15V22.7825H178.716V14.4873H169.942V8.17766H178.716V0Z" fill="white"/>
<path d="M222.855 27.3547L230.234 27.4723C229.074 33.2202 225.609 36.3162 222.406 37.9622C219.969 39.2163 217.091 39.9935 213.598 39.9935C208.558 39.9935 204.437 38.4978 201.227 35.4997C198.017 32.5082 196.409 28.5827 196.409 23.7231C196.409 18.8962 198.052 14.9772 201.344 11.9726C204.637 8.96152 208.779 7.45923 213.791 7.45923C217.318 7.45923 220.411 8.15812 222.951 9.71266C228.695 13.2332 229.951 18.7982 230.234 21.8093L222.868 21.7963C221.854 16.1529 217.36 14.1607 213.549 14.1607C210.905 14.1607 208.662 15.0425 206.819 16.7995C204.976 18.5566 204.057 20.8688 204.057 23.7231C204.057 26.5252 204.976 28.8178 206.819 30.6075C208.662 32.3972 210.919 33.2855 213.598 33.2855C215.641 33.2855 217.76 32.7956 219.175 31.8093C220.59 30.8361 221.654 30.1176 222.855 27.3547Z" fill="white"/>
<path d="M227.949 8.09277L241.41 39.373H248.59L262.051 8.09277H253.739L250.764 15.6434H239.243L236.268 8.09277H227.949ZM243.626 26.904L241.645 21.8093H248.348L246.367 26.904L245.897 28.0666C245.614 28.6937 245.318 29.5428 245 30.614C244.938 30.405 244.841 30.1176 244.717 29.7453C244.593 29.373 244.482 29.0529 244.386 28.7851C244.289 28.5173 244.199 28.2757 244.103 28.0732L243.626 26.904Z" fill="white"/>
<path d="M282.443 39.373L275.077 27.0412H270.97V39.373H263.321V8.09277H277.728C281.697 8.09277 284.748 8.88964 286.888 10.4834C289.028 12.0771 290.098 14.3501 290.098 17.2959C290.098 19.5624 289.484 21.4043 288.255 22.8348C287.026 24.2652 285.245 25.454 282.919 26.4076L290.664 39.3665H282.443V39.373ZM270.97 13.9909V21.1431H278.48C281.283 21.1431 282.684 19.9543 282.684 17.5702C282.684 15.1862 281.283 13.9974 278.48 13.9974H270.97V13.9909Z" fill="white"/>
<path d="M312.34 39.373L304.968 27.0412H300.86V39.373H293.212V8.09277H307.619C311.588 8.09277 314.639 8.88964 316.779 10.4834C318.919 12.0771 319.989 14.3501 319.989 17.2959C319.989 19.5624 319.375 21.4043 318.146 22.8348C316.917 24.2652 315.136 25.454 312.81 26.4076L320.555 39.3665H312.34V39.373ZM300.86 13.9909V21.1431H308.371C311.174 21.1431 312.575 19.9543 312.575 17.5702C312.575 15.1862 311.174 13.9974 308.371 13.9974H300.86V13.9909Z" fill="white"/>
<path d="M350.922 12.1619C354.229 15.2906 355.878 19.1508 355.878 23.7361C355.878 28.3213 354.229 32.1815 350.922 35.3102C347.615 38.4389 343.473 40 338.503 40C333.526 40 329.391 38.4389 326.084 35.3102C322.778 32.1815 321.128 28.3278 321.128 23.7361C321.128 19.1508 322.778 15.2906 326.084 12.1619C329.391 9.03326 333.533 7.47219 338.503 7.47219C343.48 7.46566 347.615 9.03326 350.922 12.1619ZM331.586 30.6792C333.457 32.4232 335.763 33.2919 338.503 33.2919C341.244 33.2919 343.549 32.4232 345.42 30.6792C347.291 28.9353 348.23 26.6231 348.23 23.7295C348.23 20.8425 347.291 18.5238 345.42 16.7798C343.549 15.0359 341.244 14.1672 338.503 14.1672C335.763 14.1672 333.457 15.0359 331.586 16.7798C329.715 18.5238 328.777 20.836 328.777 23.7295C328.777 26.6231 329.709 28.9418 331.586 30.6792Z" fill="white"/>
<path d="M354.802 14.4415V8.09924H382.007V14.4415H372.232V39.3729H364.583V14.4415H354.802Z" fill="white"/>
<path d="M248.293 8.047H241.783V16.7994H248.293V8.047Z" fill="white"/>
</g>
<defs>
<clipPath id="clip0_2_540">
<rect width="382" height="40" fill="white"/>
</clipPath>
</defs>
</svg>
