<svg width="440" height="71" viewBox="0 0 440 71" fill="none" xmlns="http://www.w3.org/2000/svg">
<path d="M3.71981 68.4135C1.23994 66.6988 0 64.1994 0 60.9153V60.4794H8.38433V60.9153C8.38433 61.8744 8.94525 62.601 10.0671 63.1241C11.1889 63.6472 12.7536 63.9088 14.7907 63.9088C18.4809 63.9088 20.3408 63.2985 20.3408 62.0778V61.8163C20.3408 61.0607 19.3961 60.5375 17.5362 60.2469L9.59474 59.0263C6.4949 58.5613 4.19216 57.6603 2.68653 56.4106C1.18089 55.1319 0.413312 53.4462 0.413312 51.3247V50.8887C0.413312 48.0987 1.62373 45.9481 4.01503 44.4078C6.40633 42.8674 9.8014 42.1118 14.1412 42.1118C18.7466 42.1118 22.2893 42.9256 24.7397 44.5821C27.19 46.2387 28.4004 48.5928 28.4004 51.6734V52.0222H20.1047V51.6734C20.1047 50.8306 19.6028 50.1912 18.6581 49.7844C17.6838 49.3775 16.1782 49.174 14.1412 49.174C10.7166 49.174 8.97477 49.6681 8.97477 50.6853V50.9469C8.97477 51.2665 9.18143 51.5281 9.59474 51.7315C10.0081 51.935 10.7166 52.1094 11.6908 52.2547L19.6914 53.4753C22.8798 53.9403 25.2415 54.8412 26.7767 56.1491C28.3119 57.4569 29.109 59.2006 29.109 61.4094V61.8453C29.109 64.7225 27.8395 66.9604 25.2711 68.5588C22.7026 70.1573 19.1304 70.9419 14.525 70.9419C9.77187 71.0001 6.19968 70.1282 3.71981 68.4135Z" fill="white"/>
<path d="M79.7691 42.7222V44.0009L70.7058 70.477H60.1958L54.6457 53.7369L49.1545 70.477H38.6446L29.4927 44.0009V42.7222H38.2608L43.9586 60.5957L49.9811 42.7222H59.3397L65.3918 60.5666L71.0305 42.7222H79.7691Z" fill="white"/>
<path d="M108.73 42.7222V49.9878H91.2533V52.9813H107.874V60.1307H91.2533V63.1823H108.73V70.4479H82.6328V42.7222H108.73Z" fill="white"/>
<path d="M139.758 42.7222V49.9878H122.281V52.9813H138.902V60.1307H122.281V63.1823H139.758V70.4479H113.661V42.7222H139.758Z" fill="white"/>
<path d="M142.593 50.3075V42.7222H170.963V50.3366H161.073V70.4479H152.453V50.3366H142.593V50.3075Z" fill="white"/>
<path d="M209.165 42.7222C212.708 42.7222 215.483 43.565 217.491 45.2216C219.498 46.8781 220.502 49.1741 220.502 52.1094V52.5453C220.502 55.4807 219.498 57.7766 217.491 59.4622C215.483 61.1479 212.708 61.9907 209.165 61.9907H199.453V70.477H190.832V42.7222H209.165ZM211.704 52.5163V52.0803C211.704 50.7144 210.789 50.0459 208.959 50.0459H199.482V54.5797H208.959C210.789 54.5797 211.704 53.9113 211.704 52.5163Z" fill="white"/>
<path d="M231.543 69.2272C228.916 68.0647 226.879 66.3791 225.432 64.2285C223.985 62.0488 223.277 59.5494 223.277 56.7012V56.4978C223.277 53.6497 223.985 51.1503 225.432 48.9706C226.879 46.7909 228.916 45.1343 231.543 43.9427C234.171 42.7512 237.211 42.1699 240.695 42.1699C244.208 42.1699 247.278 42.7512 249.935 43.9427C252.563 45.1343 254.6 46.7909 256.047 48.9415C257.464 51.0921 258.202 53.6206 258.202 56.4978V56.7012C258.202 59.5784 257.493 62.0778 256.047 64.2575C254.63 66.4082 252.592 68.0647 249.935 69.2563C247.308 70.4188 244.238 71 240.695 71C237.241 71 234.171 70.4188 231.543 69.2272ZM247.249 61.5547C248.636 60.5375 249.345 58.9681 249.345 56.8465V56.4106C249.345 52.1965 246.452 50.075 240.665 50.075C237.831 50.075 235.676 50.5981 234.23 51.6734C232.783 52.7487 232.045 54.3181 232.045 56.4106V56.8465C232.045 58.9681 232.754 60.5375 234.2 61.5547C235.617 62.5719 237.802 63.095 240.695 63.095C243.677 63.095 245.861 62.5719 247.249 61.5547Z" fill="white"/>
<path d="M258.94 50.3075V42.7222H287.311V50.3366H277.421V70.4479H268.8V50.3366H258.94V50.3075Z" fill="white"/>
<path d="M317.542 69.1692V70.4479H309.128L307.268 65.8851H294.928L293.068 70.4479H284.654V69.1692L296.345 42.6931H305.88L317.542 69.1692ZM304.404 58.8519L301.098 50.7725L297.791 58.8519H304.404Z" fill="white"/>
<path d="M314.885 50.3075V42.7222H343.255V50.3366H333.365V70.4479H324.745V50.3366H314.885V50.3075Z" fill="white"/>
<path d="M352.319 69.2272C349.691 68.0647 347.654 66.3791 346.208 64.2285C344.761 62.0488 344.052 59.5494 344.052 56.7012V56.4978C344.052 53.6497 344.761 51.1503 346.208 48.9706C347.654 46.7909 349.691 45.1343 352.319 43.9427C354.946 42.7512 357.987 42.1699 361.471 42.1699C364.984 42.1699 368.054 42.7512 370.711 43.9427C373.339 45.1343 375.376 46.7909 376.822 48.9415C378.239 51.0921 378.977 53.6206 378.977 56.4978V56.7012C378.977 59.5784 378.269 62.0778 376.822 64.2575C375.405 66.4082 373.368 68.0647 370.711 69.2563C368.084 70.4188 365.013 71 361.471 71C358.017 71 354.976 70.4188 352.319 69.2272ZM368.054 61.5547C369.442 60.5375 370.15 58.9681 370.15 56.8465V56.4106C370.15 52.1965 367.257 50.075 361.471 50.075C358.636 50.075 356.481 50.5981 355.035 51.6734C353.588 52.7487 352.85 54.3181 352.85 56.4106V56.8465C352.85 58.9681 353.559 60.5375 355.005 61.5547C356.422 62.5719 358.607 63.095 361.5 63.095C364.452 63.095 366.637 62.5719 368.054 61.5547Z" fill="white"/>
<path d="M403.274 56.614L400.942 48.5927L435.395 32.7535L440 48.6799L403.274 56.614Z" fill="white"/>
<path d="M391.17 32.1433L382.786 30.3123L389.783 0L404.485 4.0397L391.17 32.1433Z" fill="white"/>
<path d="M392.942 49.9877L384.912 44.6693L428.132 1.74377L437.816 15.6357L392.942 49.9877Z" fill="white"/>
</svg>
