<svg width="321" height="69" viewBox="0 0 321 69" fill="none" xmlns="http://www.w3.org/2000/svg">
<path d="M44.8419 36.8921C46.2374 30.9825 42.5779 25.0606 36.6682 23.6651C30.7586 22.2697 24.8366 25.9292 23.4412 31.8388C22.0458 37.7485 25.7053 43.6704 31.6149 45.0658C37.5246 46.4613 43.4465 42.8018 44.8419 36.8921Z" fill="white"/>
<path d="M46.8475 21.3763C51.7931 21.3763 55.8022 17.3672 55.8022 12.4216C55.8022 7.47608 51.7931 3.46692 46.8475 3.46692C41.902 3.46692 37.8928 7.47608 37.8928 12.4216C37.8928 17.3672 41.902 21.3763 46.8475 21.3763Z" fill="white"/>
<path d="M28.905 17.5035C31.6978 13.422 30.653 7.84923 26.5714 5.05647C22.4898 2.26372 16.9171 3.30851 14.1244 7.39007C11.3316 11.4716 12.3764 17.0444 16.458 19.8371C20.5395 22.6299 26.1122 21.5851 28.905 17.5035Z" fill="white"/>
<path d="M4.34095 26.5906C8.64828 24.0969 14.0891 25.5704 16.4695 29.8778C18.8498 34.1851 17.4896 39.6259 13.1823 42.0063C8.98833 44.5 3.54749 43.0265 1.16713 38.8325C-1.21324 34.6385 0.146971 29.0843 4.34095 26.5906Z" fill="white"/>
<path d="M27.7996 62.6598C31.2966 59.1628 31.2966 53.493 27.7996 49.996C24.3026 46.499 18.6328 46.499 15.1358 49.996C11.6388 53.493 11.6388 59.1628 15.1358 62.6598C18.6328 66.1568 24.3026 66.1568 27.7996 62.6598Z" fill="white"/>
<path d="M42.4268 63.9962C38.1194 61.5025 36.7592 56.0617 39.1396 51.8677C41.6333 47.5604 47.0742 46.2001 51.2681 48.5805C55.5755 51.0742 56.9357 56.5151 54.5553 60.709C52.1749 64.903 46.6207 66.4899 42.4268 63.9962Z" fill="white"/>
<path d="M63.9635 42.0062C59.6562 44.4999 54.2154 43.0264 51.835 38.7191C49.3413 34.4117 50.8148 28.9709 55.1222 26.5905C59.4295 24.2102 64.8703 25.5704 67.2507 29.8777C69.7444 34.185 68.2709 39.6259 63.9635 42.0062Z" fill="white"/>
<path d="M100.349 17.7494C95.8149 17.7494 92.301 19.3363 90.034 22.3968V18.6562H81.1926V62.6363H90.034V46.2004C92.5277 49.2609 95.9282 50.8478 100.349 50.8478C104.656 50.8478 108.17 49.2609 110.891 46.0871C113.724 42.9133 115.198 38.946 115.198 34.2986C115.198 29.6512 113.724 25.6839 110.891 22.5101C108.17 19.3363 104.656 17.7494 100.349 17.7494ZM103.976 40.6462C102.389 42.3465 100.349 43.14 97.8552 43.14C94.4547 43.14 90.034 40.6462 90.034 34.412C90.034 28.1777 94.4547 25.5706 97.8552 25.5706C100.349 25.5706 102.389 26.364 103.976 28.0643C105.676 29.7646 106.357 31.8049 106.357 34.2986C106.357 36.7923 105.563 38.8326 103.976 40.6462Z" fill="white"/>
<path d="M166.999 5.96094H158.158V50.0544H166.999V5.96094Z" fill="white"/>
<path d="M233.876 22.3968C231.382 19.3363 227.982 17.7494 223.561 17.7494C219.254 17.7494 215.74 19.3363 212.906 22.5101C210.186 25.6839 208.712 29.6512 208.712 34.1853C208.712 38.946 210.186 42.7999 212.906 45.9737C215.74 49.1476 219.254 50.7345 223.561 50.7345C228.095 50.7345 231.609 49.1476 233.876 46.0871V49.941H242.717V18.6562H233.876V22.3968ZM226.055 43.14C223.561 43.14 221.521 42.3465 219.934 40.6462C218.234 38.946 217.554 36.9057 217.554 34.412C217.554 31.9182 218.347 29.8779 219.934 28.1777C221.521 26.364 223.561 25.6839 226.055 25.6839C229.455 25.6839 233.876 28.1777 233.876 34.412C233.876 40.5329 229.455 43.14 226.055 43.14Z" fill="white"/>
<path d="M312.088 18.6562V22.3968C309.594 19.3363 306.194 17.7494 301.773 17.7494C297.466 17.7494 293.952 19.3363 291.118 22.5101C288.398 25.6839 286.924 29.6512 286.924 34.1853C286.924 38.946 288.398 42.7999 291.118 45.9737C293.952 49.1476 297.466 50.7345 301.773 50.7345C306.307 50.7345 309.821 49.1476 312.088 46.0871V49.941H320.93V18.6562H312.088ZM304.267 43.14C301.773 43.14 299.733 42.3465 298.146 40.6462C296.446 38.946 295.766 36.9057 295.766 34.412C295.766 31.9182 296.559 29.8779 298.146 28.1777C299.733 26.364 301.773 25.6839 304.267 25.6839C307.668 25.6839 312.088 28.1777 312.088 34.412C312.088 40.5329 307.781 43.14 304.267 43.14Z" fill="white"/>
<path d="M270.148 17.7494C265.841 17.7494 262.441 19.3363 259.607 22.3968V18.6562H250.765V50.0544H259.607V29.9913C261.194 27.6109 264.027 25.7973 266.748 25.7973C270.035 25.7973 272.755 27.6109 272.755 32.3716V49.7143H281.597V30.7847C281.597 22.7368 277.516 17.7494 270.148 17.7494Z" fill="white"/>
<path d="M189.783 39.2863L181.508 18.6565H171.987L185.475 48.9212L179.808 62.6366H188.649L192.503 53.2285L207.125 18.6565H197.604L189.783 39.2863Z" fill="white"/>
<path d="M124.719 22.5101C127.893 19.3363 131.747 17.7494 136.394 17.7494C141.042 17.7494 144.896 19.3363 148.07 22.5101C151.243 25.6839 152.83 29.5379 152.83 34.2986C152.83 39.0593 151.243 43.0266 148.07 46.0871C144.896 49.2609 141.042 50.7345 136.281 50.7345C131.634 50.7345 127.78 49.1476 124.606 45.9737C121.432 42.7999 119.845 38.946 119.845 34.1853C119.959 29.5379 121.545 25.6839 124.719 22.5101ZM136.508 25.4572C131.747 25.4572 128.8 29.4245 128.8 34.2986C128.8 39.1727 131.86 43.14 136.508 43.14C141.155 43.14 144.216 39.1727 144.216 34.2986C144.216 29.4245 141.155 25.4572 136.508 25.4572Z" fill="white"/>
</svg>
