<svg width="245" height="64" viewBox="0 0 245 64" fill="none" xmlns="http://www.w3.org/2000/svg">
<path d="M114.706 0.114363L127.858 22.9869C127.629 22.9869 127.4 22.9869 127.171 22.9869C126.943 22.9869 126.714 22.9869 126.485 22.9869C123.969 22.9869 121.568 23.4444 119.28 24.4736C117.107 25.3885 115.163 26.7609 113.448 28.3619C111.732 30.0774 110.474 32.0216 109.559 34.1944C108.645 36.3673 108.073 38.769 108.073 41.3993C108.073 44.0296 108.53 46.3169 109.559 48.6041C110.474 50.777 111.847 52.7212 113.448 54.4366C115.163 56.0377 117.107 57.4101 119.28 58.325C121.453 59.2399 123.855 59.8117 126.485 59.8117C128.315 59.8117 130.03 59.583 131.746 59.1255C133.461 58.6681 134.948 57.8675 136.435 56.9526C137.921 56.0377 139.179 54.8941 140.323 53.6361C141.467 52.3781 142.382 51.0058 143.068 49.4047L148.786 59.3542H158.049L124.084 0L114.706 0.114363ZM133.804 33.9657C134.719 34.8806 135.52 36.0243 135.977 37.2822C136.549 38.5402 136.778 39.9126 136.778 41.2849C136.778 42.7716 136.549 44.0296 135.977 45.2876C135.405 46.5456 134.719 47.6892 133.804 48.6041C132.889 49.5191 131.746 50.3196 130.488 50.777C129.23 51.3489 127.858 51.5776 126.485 51.5776C124.998 51.5776 123.74 51.3489 122.482 50.777C121.224 50.2052 120.081 49.5191 119.166 48.6041C118.251 47.6892 117.45 46.5456 116.879 45.2876C116.307 44.0296 116.078 42.6573 116.078 41.2849C116.078 39.7982 116.307 38.5402 116.879 37.2822C117.45 36.0243 118.137 34.8806 119.166 33.9657C120.081 33.0508 121.224 32.2503 122.482 31.6785C123.74 31.1067 125.113 30.8779 126.485 30.8779C127.972 30.8779 129.23 31.1067 130.488 31.6785C131.746 32.3646 132.889 33.0508 133.804 33.9657Z" fill="white"/>
<path d="M173.717 19.2128H165.597V59.1254H173.717V19.2128Z" fill="white"/>
<path d="M243.478 41.1705C242.792 39.5694 241.877 38.197 240.733 37.0534C239.59 35.9098 238.218 34.9949 236.616 34.3087C235.015 33.6225 233.3 33.2794 231.47 33.2794H197.619C196.704 33.2794 195.903 32.9363 195.217 32.3645C194.531 31.7927 194.188 30.9922 194.188 30.0773C194.188 29.1624 194.531 28.4762 195.103 27.79C195.675 27.2182 196.475 26.8751 197.276 26.8751H242.792V18.7554H197.504C195.903 18.7554 194.417 19.0985 193.044 19.6703C191.672 20.2421 190.528 21.0426 189.385 22.0719C188.355 23.1012 187.555 24.2448 186.983 25.6171C186.411 26.9895 186.068 28.4762 186.068 30.0773C186.068 31.564 186.411 33.0507 186.983 34.4231C187.555 35.7954 188.355 36.939 189.385 37.9683C190.414 38.9976 191.672 39.7981 193.044 40.3699C194.417 40.9417 195.903 41.2848 197.504 41.2848H231.356C232.842 41.2848 233.986 41.7423 235.015 42.6572C235.93 43.5721 236.502 44.7157 236.502 46.2024C236.502 47.5748 236.045 48.8328 235.015 49.7477C234.1 50.7769 232.842 51.2344 231.356 51.2344H186.068V59.2398H231.356C233.186 59.2398 234.901 58.8967 236.502 58.2105C238.103 57.5243 239.475 56.6094 240.619 55.4658C241.763 54.3222 242.678 52.9498 243.364 51.3487C244.05 49.7477 244.393 48.1466 244.393 46.3168C244.507 44.3726 244.164 42.7715 243.478 41.1705Z" fill="white"/>
<path d="M93.8917 21.3857C90.9183 19.8989 88.0592 19.2128 85.5432 19.2128C82.7985 19.2128 80.2826 19.6702 77.7666 20.6995C75.2506 21.7287 73.0777 23.2155 71.0192 25.1596C68.9606 27.2182 67.4739 29.391 66.559 31.907C65.6441 34.423 65.0723 36.939 65.0723 39.5693C65.0723 41.6279 65.301 43.572 65.8728 45.5162C66.4447 47.4604 67.2452 49.2902 68.3888 51.0056L61.2983 58.0961L66.9021 63.6999L73.9926 56.6094C75.708 57.753 77.5378 58.6679 79.482 59.1254C81.4262 59.6972 83.3703 59.9259 85.4289 59.9259C88.0592 59.9259 90.5752 59.4684 93.0912 58.4392C95.6072 57.5243 97.8944 56.0376 99.8386 53.979L94.2348 48.3753C92.9768 49.6332 91.6045 50.5482 90.0034 51.12C88.4023 51.6918 86.9156 52.0349 85.3145 52.0349C83.256 52.0349 81.4262 51.5774 79.8251 50.7769L102.698 27.9043C99.8386 25.0453 96.8651 22.8724 93.8917 21.3857ZM74.3357 45.2875C73.5352 43.572 73.0777 41.7422 73.0777 39.6837C73.0777 38.0826 73.4208 36.5959 73.9926 34.9948C74.5644 33.3937 75.4793 32.0214 76.7373 30.7634C77.8809 29.5054 79.2533 28.5905 80.74 28.0187C82.2267 27.4469 83.8278 27.1038 85.5432 27.1038C86.4581 27.1038 87.373 27.2182 88.4023 27.4469C89.4316 27.6756 90.3465 28.0187 91.147 28.3618L74.3357 45.2875Z" fill="white"/>
<path d="M34.1944 20.0136C28.5907 20.0136 22.6438 21.6146 17.3831 25.0455L19.0986 18.4125H10.8645L0 59.24H8.34848L12.0081 45.5164C15.6677 31.6785 27.6758 28.0189 34.1944 28.0189H59.0112L61.5271 20.0136H34.1944Z" fill="white"/>
</svg>
