{
  "accessors": [
    {
      "bufferView": 2,
      "componentType": 5126,
      "count": 285,
      "max": [
        9.836624145507813,
        58.09281539916992,
        10.168200492858887
      ],
      "min": [
        -9.323460578918457,
        16.497417449951172,
        -9.856639862060547
      ],
      "type": "VEC3"
    },
    {
      "bufferView": 2,
      "byteOffset": 3420,
      "componentType": 5126,
      "count": 285,
      "max": [
        0.9999620914459229,
        1.0,
        0.9999356865882874
      ],
      "min": [
        -0.9995610117912292,
        -0.9989089369773865,
        -0.9999346137046814
      ],
      "type": "VEC3"
    },
    {
      "bufferView": 3,
      "componentType": 5126,
      "count": 285,
      "max": [
        0.9998430013656616,
        0.9993735551834106,
        0.9999874234199524,
        1.0
      ],
      "min": [
        -0.9983047246932983,
        -0.5816279649734497,
        -0.9999048113822937,
        -1.0
      ],
      "type": "VEC4"
    },
    {
      "bufferView": 1,
      "componentType": 5126,
      "count": 285,
      "max": [
        0.9915294647216797,
        1.0
      ],
      "min": [
        0.0004753811517730355,
        0.0043160319328308105
      ],
      "type": "VEC2"
    },
    {
      "bufferView": 1,
      "byteOffset": 2280,
      "componentType": 5126,
      "count": 285,
      "max": [
        0.9915294647216797,
        1.0
      ],
      "min": [
        0.0004753811517730355,
        0.0043160319328308105
      ],
      "type": "VEC2"
    },
    {
      "bufferView": 0,
      "componentType": 5125,
      "count": 984,
      "type": "SCALAR"
    }
  ],
  "asset": {
    "extras": {
      "author": "mechlai (https://sketchfab.com/mechlai)",
      "license": "CC-BY-4.0 (http://creativecommons.org/licenses/by/4.0/)",
      "source": "https://sketchfab.com/3d-models/carrot-e42ed3a0ae184045b12a9cd75e15b73c",
      "title": "Carrot"
    },
    "generator": "Sketchfab-12.61.0",
    "version": "2.0"
  },
  "bufferViews": [
    {
      "buffer": 0,
      "byteLength": 3936,
      "name": "floatBufferViews",
      "target": 34963
    },
    {
      "buffer": 0,
      "byteLength": 4560,
      "byteOffset": 3936,
      "byteStride": 8,
      "name": "floatBufferViews",
      "target": 34962
    },
    {
      "buffer": 0,
      "byteLength": 6840,
      "byteOffset": 8496,
      "byteStride": 12,
      "name": "floatBufferViews",
      "target": 34962
    },
    {
      "buffer": 0,
      "byteLength": 4560,
      "byteOffset": 15336,
      "byteStride": 16,
      "name": "floatBufferViews",
      "target": 34962
    }
  ],
  "buffers": [
    {
      "byteLength": 19896,
      "uri": "scene.bin"
    }
  ],
  "images": [
    {
      "uri": "textures/phong3_baseColor.png"
    },
    {
      "uri": "textures/phong3_metallicRoughness.png"
    },
    {
      "uri": "textures/phong3_normal.png"
    }
  ],
  "materials": [
    {
      "alphaMode": "BLEND",
      "doubleSided": true,
      "name": "phong3",
      "normalTexture": {
        "index": 2
      },
      "pbrMetallicRoughness": {
        "baseColorTexture": {
          "index": 0
        },
        "metallicRoughnessTexture": {
          "index": 1
        }
      }
    }
  ],
  "meshes": [
    {
      "name": "polySurface15_phong3_0",
      "primitives": [
        {
          "attributes": {
            "NORMAL": 1,
            "POSITION": 0,
            "TANGENT": 2,
            "TEXCOORD_0": 3,
            "TEXCOORD_1": 4
          },
          "indices": 5,
          "material": 0,
          "mode": 4
        }
      ]
    }
  ],
  "nodes": [
    {
      "children": [
        1
      ],
      "matrix": [
        1.0,
        0.0,
        0.0,
        0.0,
        0.0,
        2.220446049250313e-16,
        -1.0,
        0.0,
        0.0,
        1.0,
        2.220446049250313e-16,
        0.0,
        0.0,
        0.0,
        0.0,
        1.0
      ],
      "name": "Sketchfab_model"
    },
    {
      "children": [
        2
      ],
      "matrix": [
        1.0,
        0.0,
        0.0,
        0.0,
        0.0,
        0.0,
        1.0,
        0.0,
        0.0,
        -1.0,
        0.0,
        0.0,
        0.0,
        0.0,
        0.0,
        1.0
      ],
      "name": "148656e77e3d4c408f198e8b2bcbee24.fbx"
    },
    {
      "children": [
        3
      ],
      "name": "RootNode"
    },
    {
      "children": [
        4
      ],
      "matrix": [
        0.009999999776482582,
        0.0,
        0.0,
        0.0,
        0.0,
        0.009999999776482582,
        0.0,
        0.0,
        0.0,
        0.0,
        0.009999999776482582,
        0.0,
        0.0,
        0.0,
        0.0,
        1.0
      ],
      "name": "polySurface15"
    },
    {
      "mesh": 0,
      "name": "polySurface15_phong3_0"
    }
  ],
  "samplers": [
    {
      "magFilter": 9729,
      "minFilter": 9987,
      "wrapS": 10497,
      "wrapT": 10497
    }
  ],
  "scene": 0,
  "scenes": [
    {
      "name": "Sketchfab_Scene",
      "nodes": [
        0
      ]
    }
  ],
  "textures": [
    {
      "sampler": 0,
      "source": 0
    },
    {
      "sampler": 0,
      "source": 1
    },
    {
      "sampler": 0,
      "source": 2
    }
  ]
}
