<svg width="160" height="17" viewBox="0 0 160 17" fill="none" xmlns="http://www.w3.org/2000/svg">
<g clip-path="url(#clip0_2_757)">
<path d="M9.12229 3.40608V7.38403C9.12229 7.38403 6.73979 7.38959 6.28585 7.38403L4.10286 3.35889H0.468403L3.00703 7.85595C1.15366 8.63044 0 10.0795 0 11.9644C0 13.5578 0.39901 14.7764 1.58736 15.7175C2.45767 16.4059 3.53326 16.7668 6.08345 16.7668H12.4445V3.40608H9.12229ZM9.12229 14.1157H5.77118C3.56796 14.1157 3.39158 12.9776 3.39158 11.9671C3.39158 10.9789 4.13467 9.96846 6.07189 9.96846H9.1194V14.1157H9.12229Z" fill="white"/>
<path d="M13.0691 16.775L18.7073 3.48096H21.7143L27.3525 16.775H23.8684L22.6222 13.566H17.7965L16.5503 16.775H13.0691ZM19.6354 8.78027L18.8056 10.9455H21.6131L20.7833 8.78027L20.5867 8.28615C20.4681 8.01966 20.3438 7.65878 20.2108 7.20352C20.1848 7.29236 20.1443 7.4145 20.0922 7.57273C20.0402 7.73096 19.9939 7.86698 19.9535 7.98079C19.913 8.09461 19.8754 8.19732 19.8349 8.28337L19.6354 8.78027Z" fill="white"/>
<path d="M27.8845 16.775V3.48096H33.8176C35.2431 3.48096 36.3649 3.76966 37.189 4.34428C38.013 4.92168 38.4265 5.72116 38.4265 6.74549C38.4265 7.39229 38.2703 7.92527 37.961 8.35C37.6516 8.77472 37.2063 9.16335 36.6251 9.51868C37.3104 9.79627 37.8771 10.2043 38.3253 10.7429C38.7734 11.2814 38.999 11.9615 38.999 12.7832C38.999 14.0102 38.5219 14.9845 37.5648 15.698C36.6078 16.4142 35.4252 16.7723 34.0142 16.7723H27.8845V16.775ZM31.0911 5.87384V8.49435H33.7627C34.3034 8.49435 34.7226 8.37776 35.0175 8.1418C35.3154 7.90862 35.4628 7.58106 35.4628 7.16466C35.4628 6.75937 35.3182 6.44291 35.0262 6.21528C34.7371 5.98765 34.3149 5.87384 33.7598 5.87384H31.0911ZM31.0911 11.001V14.2295H33.9188C35.2633 14.2295 35.937 13.6965 35.937 12.6333C35.937 11.5451 35.2633 11.001 33.9188 11.001H31.0911Z" fill="white"/>
<path d="M40.3259 16.775V3.48096H46.2619C47.6874 3.48096 48.8092 3.76966 49.6333 4.34428C50.4573 4.92168 50.8708 5.72116 50.8708 6.74549C50.8708 7.39229 50.7146 7.92527 50.4053 8.35C50.0959 8.77472 49.6506 9.16335 49.0694 9.51868C49.7547 9.79627 50.3214 10.2043 50.7696 10.7429C51.2177 11.2814 51.4433 11.9615 51.4433 12.7832C51.4433 14.0102 50.9662 14.9845 50.0091 15.698C49.0521 16.4142 47.8695 16.7723 46.4585 16.7723H40.3259V16.775ZM43.5325 5.87384V8.49435H46.2041C46.7448 8.49435 47.164 8.37776 47.459 8.1418C47.7568 7.90862 47.9042 7.58106 47.9042 7.16466C47.9042 6.75937 47.7597 6.44291 47.4676 6.21528C47.1785 5.98765 46.7563 5.87384 46.2012 5.87384H43.5325ZM43.5325 11.001V14.2295H46.3602C47.7047 14.2295 48.3784 13.6965 48.3784 12.6333C48.3784 11.5451 47.7047 11.001 46.3602 11.001H43.5325Z" fill="white"/>
<path d="M52.7415 16.775V3.48096H55.8873V16.775H52.7415Z" fill="white"/>
<path d="M57.041 6.17642V3.48096H68.4359V6.17642H64.3417V16.7723H61.1381V6.17642H57.041Z" fill="white"/>
<path d="M74.8549 0H77.5496V3.47273H81.265V6.15431H77.5496V9.68256H74.8549V6.15709H71.1799V3.47551H74.8549V0Z" fill="white"/>
<path d="M93.3422 11.6255L96.4331 11.6755C95.9474 14.1183 94.4959 15.4341 93.1543 16.1337C92.1336 16.6667 90.9279 16.997 89.4649 16.997C87.3542 16.997 85.6281 16.3613 84.2836 15.0871C82.9391 13.8157 82.2654 12.1474 82.2654 10.0821C82.2654 8.03063 82.9535 6.36506 84.3327 5.08811C85.7119 3.80839 87.4467 3.16992 89.5459 3.16992C91.0234 3.16992 92.3187 3.46695 93.3827 4.12763C95.7883 5.62387 96.3146 7.98899 96.4331 9.26871L93.348 9.26316C92.923 6.86473 91.0407 6.01806 89.4447 6.01806C88.3373 6.01806 87.3976 6.39282 86.6256 7.13955C85.8536 7.88628 85.469 8.86898 85.469 10.0821C85.469 11.273 85.8536 12.2473 86.6256 13.0079C87.3976 13.7686 88.3431 14.1461 89.4649 14.1461C90.3208 14.1461 91.2084 13.9379 91.8011 13.5187C92.3939 13.1051 92.8391 12.7997 93.3422 11.6255Z" fill="white"/>
<path d="M95.4761 3.43945L101.114 16.7335H104.121L109.759 3.43945H106.278L105.032 6.64847H100.206L98.9602 3.43945H95.4761ZM102.042 11.4342L101.213 9.26898H104.02L103.19 11.4342L102.994 11.9283C102.875 12.1948 102.751 12.5557 102.618 13.011C102.592 12.9221 102.551 12.8 102.499 12.6418C102.447 12.4835 102.401 12.3475 102.36 12.2337C102.32 12.1199 102.282 12.0172 102.242 11.9311L102.042 11.4342Z" fill="white"/>
<path d="M118.301 16.7335L115.216 11.4925H113.495V16.7335H110.292V3.43945H116.326C117.988 3.43945 119.266 3.77812 120.163 4.45546C121.059 5.13279 121.507 6.09883 121.507 7.35079C121.507 8.31404 121.25 9.09687 120.735 9.7048C120.22 10.3127 119.475 10.818 118.5 11.2233L121.744 16.7308H118.301V16.7335ZM113.495 5.94615V8.98583H116.641C117.815 8.98583 118.402 8.4806 118.402 7.46738C118.402 6.45415 117.815 5.94892 116.641 5.94892H113.495V5.94615Z" fill="white"/>
<path d="M130.823 16.7335L127.735 11.4925H126.015V16.7335H122.811V3.43945H128.845C130.508 3.43945 131.786 3.77812 132.682 4.45546C133.579 5.13279 134.027 6.09883 134.027 7.35079C134.027 8.31404 133.769 9.09687 133.255 9.7048C132.74 10.3127 131.994 10.818 131.02 11.2233L134.264 16.7308H130.823V16.7335ZM126.015 5.94615V8.98583H129.16C130.334 8.98583 130.921 8.4806 130.921 7.46738C130.921 6.45415 130.334 5.94892 129.16 5.94892H126.015V5.94615Z" fill="white"/>
<path d="M146.983 5.16893C148.368 6.49862 149.059 8.13921 149.059 10.0879C149.059 12.0367 148.368 13.6773 146.983 15.0069C145.598 16.3366 143.863 17.0001 141.782 17.0001C139.697 17.0001 137.965 16.3366 136.58 15.0069C135.195 13.6773 134.504 12.0394 134.504 10.0879C134.504 8.13921 135.195 6.49862 136.58 5.16893C137.965 3.83925 139.7 3.17579 141.782 3.17579C143.866 3.17301 145.598 3.83925 146.983 5.16893ZM138.884 13.0388C139.668 13.78 140.634 14.1492 141.782 14.1492C142.929 14.1492 143.895 13.78 144.679 13.0388C145.462 12.2976 145.855 11.3149 145.855 10.0852C145.855 8.85819 145.462 7.87272 144.679 7.13154C143.895 6.39036 142.929 6.02115 141.782 6.02115C140.634 6.02115 139.668 6.39036 138.884 7.13154C138.101 7.87272 137.708 8.85541 137.708 10.0852C137.708 11.3149 138.098 12.3004 138.884 13.0388Z" fill="white"/>
<path d="M148.608 6.13784V3.44238H160.003V6.13784H155.909V16.7337H152.705V6.13784H148.608Z" fill="white"/>
<path d="M103.997 3.41992H101.271V7.13971H103.997V3.41992Z" fill="white"/>
</g>
<defs>
<clipPath id="clip0_2_757">
<rect width="160" height="17" fill="white"/>
</clipPath>
</defs>
</svg>
