<svg width="21" height="24" viewBox="0 0 21 24" fill="none" xmlns="http://www.w3.org/2000/svg">
<g clip-path="url(#clip0_2_58)">
<path d="M4.92688 3.23445C5.25397 3.23892 7.16658 3.23445 7.16658 3.23445V0.0356445H9.77653V10.7742H5.05181C3.04835 10.7742 2.04435 10.482 1.3629 9.92876C0.427042 9.17255 0 8.19328 0 6.91509C0 5.28669 1.04489 4.06427 2.69627 3.48652C2.69627 3.48652 3.31866 3.20769 4.92688 3.23445ZM7.16658 8.68849V5.31123H4.77242C3.25051 5.31123 2.66674 6.1232 2.66674 6.91733C2.66674 7.94121 3.15511 8.68849 4.74062 8.68849H7.16658Z" fill="white"/>
<path d="M0.368042 0H3.22332L5.80828 4.87406L3.03251 4.82721L0.368042 0Z" fill="white"/>
<path d="M9.77881 13.3174L14.2082 24.0002H16.5706L21 13.3174H18.2651L17.2861 15.8961H13.4927L12.5137 13.3174H9.77881ZM14.9397 19.7418L14.2877 18.0018H16.4934L15.8414 19.7418L15.687 20.1388C15.5938 20.353 15.4962 20.643 15.3917 21.0088C15.3712 20.9374 15.3394 20.8393 15.2985 20.7121C15.2577 20.585 15.2213 20.4757 15.1895 20.3842C15.1577 20.2928 15.1282 20.2102 15.0964 20.1411L14.9397 19.7418Z" fill="white"/>
<path d="M16.473 13.3018H14.3309V16.2909H16.473V13.3018Z" fill="white"/>
</g>
<defs>
<clipPath id="clip0_2_58">
<rect width="21" height="24" fill="white"/>
</clipPath>
</defs>
</svg>
