<svg width="62" height="62" viewBox="0 0 62 62" fill="none" xmlns="http://www.w3.org/2000/svg">
<path d="M23.7563 0.599998V-1.4H21.7563V0.599998H23.7563ZM23.7563 23.88V25.88H25.7563V23.88H23.7563ZM0.47625 23.88V21.88H-1.52375V23.88H0.47625ZM0.47625 38.52H-1.52375V40.52H0.47625V38.52ZM23.7563 38.52H25.7563V36.52H23.7563V38.52ZM23.7563 61.8H21.7563V63.8H23.7563V61.8ZM38.3963 61.8V63.8H40.3963V61.8H38.3963ZM38.3963 38.52V36.52H36.3963V38.52H38.3963ZM61.6763 38.52V40.52H63.6763V38.52H61.6763ZM61.6763 23.88H63.6763V21.88H61.6763V23.88ZM38.3963 23.88H36.3963V25.88H38.3963V23.88ZM38.3963 0.599998H40.3963V-1.4H38.3963V0.599998ZM21.7563 0.599998V23.88H25.7563V0.599998H21.7563ZM23.7563 21.88H0.47625V25.88H23.7563V21.88ZM-1.52375 23.88V38.52H2.47625V23.88H-1.52375ZM0.47625 40.52H23.7563V36.52H0.47625V40.52ZM21.7563 38.52V61.8H25.7563V38.52H21.7563ZM23.7563 63.8H38.3963V59.8H23.7563V63.8ZM40.3963 61.8V38.52H36.3963V61.8H40.3963ZM38.3963 40.52H61.6763V36.52H38.3963V40.52ZM63.6763 38.52V23.88H59.6763V38.52H63.6763ZM61.6763 21.88H38.3963V25.88H61.6763V21.88ZM40.3963 23.88V0.599998H36.3963V23.88H40.3963ZM38.3963 -1.4H23.7563V2.6H38.3963V-1.4Z" fill="white"/>
</svg>
