{"extensionsUsed" : ["KHR_materials_clearcoat"], "accessors" : [{"bufferView" : 0, "byteOffset" : 0, "componentType" : 5123, "count" : 13440, "type" : "SCALAR", "max" : [10285], "min" : [0]}, {"bufferView" : 1, "byteOffset" : 0, "componentType" : 5126, "count" : 10286, "type" : "VEC3", "max" : [15.07492733001709, 2.153792142868042, 2.153710126876831], "min" : [-15.446854591369629, -2.2416088581085205, -2.0686399936676025], "name" : "POSITION"}, {"bufferView" : 1, "byteOffset" : 12, "componentType" : 5126, "count" : 10286, "type" : "VEC3", "max" : [1.0000044107437134, 0.9999796152114868, 0.9999977350234985], "min" : [-1.0000044107437134, -1.0000033378601074, -0.9999842047691345], "name" : "NORMAL"}, {"bufferView" : 1, "byteOffset" : 24, "componentType" : 5126, "count" : 10286, "type" : "VEC2", "max" : [0.9624490141868591, 0.9804689884185791], "min" : [0.019531000405550003, 0.0195310115814209], "name" : "TEXCOORD_0"}], "asset" : {"generator" : "Aspose.3D 22.7", "version" : "2.0"}, "buffers" : [{"uri" : "data:application/octet-stream;base64,", "byteLength" : 456968}], "bufferViews" : [{"buffer" : 0, "byteOffset" : 0, "byteLength" : 26880, "target" : 34963}, {"buffer" : 0, "byteOffset" : 26884, "byteLength" : 430080, "byteStride" : 32, "target" : 34962}], "materials" : [{"name" : "carrot_Mat.002", "extensions" : {"KHR_materials_clearcoat" : {"clearcoatFactor" : 0.30000001192092896, "clearcoatRoughnessFactor" : 0.029999999329447746}}, "pbrMetallicRoughness" : {"baseColorFactor" : [1, 1, 1, 1], "metallicFactor" : 0.125, "roughnessFactor" : 0.5}, "emissiveFactor" : [0, 0, 0], "alphaMode" : "OPAQUE", "doubleSided" : true}], "meshes" : [{"primitives" : [{"attributes" : {"POSITION" : 1, "NORMAL" : 2, "TEXCOORD_0" : 3}, "indices" : 0, "material" : 0, "mode" : 4}]}], "nodes" : [{"matrix" : [-4.43909823362679E-10, 0.0803215581889668, -0.03212046138511515, 0, 0.06567770141638997, 0.020904789742579984, 0.052275287980291074, 0, 0.05630023829575071, -0.024386750281704228, -0.06098236258409433, 0, -0.11837061494588852, 1.6510772705078125, -3.255958318710327, 1], "mesh" : 0, "name" : "carrot_01"}], "scene" : 0, "scenes" : [{"nodes" : [0]}]}